<svg viewBox="0 0 512 512" xmlns="http://www.w3.org/2000/svg"><path fill="#fff" d="M118.555 104.505h268.661v292.441H118.555z"/><path d="M281.541 154.23h-61.54v120h61.54c32.235 0 58.46-26.225 58.46-58.459v-3.082c0-32.234-26.225-58.459-58.46-58.459z"/><path d="M437.02 74.98C388.667 26.628 324.38 0 256 0S123.333 26.628 74.98 74.98C26.629 123.333 0 187.621 0 256s26.629 132.667 74.981 181.019S187.62 512 256 512s132.667-26.628 181.02-74.98C485.371 388.667 512 324.379 512 256s-26.629-132.667-74.98-181.02zm-67.019 140.791c0 48.776-39.683 88.459-88.46 88.459h-61.54v83.541h-30V124.23h91.54c48.777 0 88.46 39.683 88.46 88.459v3.082z"/></svg>